<?xml version="1.0" encoding="UTF-8" standalone="no"?>
<svg width="212px" height="332px" viewBox="0 0 212 332" version="1.1" xmlns="http://www.w3.org/2000/svg" xmlns:xlink="http://www.w3.org/1999/xlink" xmlns:sketch="http://www.bohemiancoding.com/sketch/ns">
    <title>icon-tabs.png</title>
    <description>Created with Sketch (http://www.bohemiancoding.com/sketch)</description>
    <defs>
        <circle id="path-1" cx="30" cy="30" r="30"></circle>
    </defs>
    <g id="Page-1" stroke="none" stroke-width="1" fill="none" fill-rule="evenodd" sketch:type="MSPage">
        <g id="Light" sketch:type="MSLayerGroup" transform="translate(151.000000, 1.000000)">
            <g id="icon-flights-light" transform="translate(0.000000, 180.000000)" sketch:type="MSShapeGroup">
                <g id="Page-1">
                    <g id="Flights" transform="translate(11.794872, 11.794872)" fill="#FFFFFF">
                        <g id="ICON">
                            <path d="M1.81202991,25.6887642 L8.8345299,27.246701 L10.3010897,34.1914602 L11.1561111,33.7263535 L11.6781837,27.127297 L11.8718376,26.9498969 C11.8899573,26.9317021 13.7947863,25.1849933 14.5580769,24.4185339 L22.0165812,16.9279282 L28.7117949,30.6389094 L30.3765385,28.9672546 L27.3392308,11.5831814 L34.0129273,4.88405308 C34.5904914,4.30181684 34.9426923,2.882616 34.615406,1.39859589 C34.3470086,1.3576574 33.9597009,1.31558174 33.5304914,1.31558174 C32.7898504,1.31558174 31.7842094,1.44180873 31.1851282,2.04451422 L24.5408761,8.71635021 L7.159594,5.65392405 L5.49371795,7.32671605 L19.2023718,14.0758803 L11.3123932,22.0008889 C10.7087821,22.6047315 9.54232908,24.1569825 9.52987179,24.172903 L9.34414528,24.4208083 L2.26841881,24.8097239 L1.81202991,25.6887642 L1.81202991,25.6887642 Z M9.37019231,36.2190525 L7.71111113,28.3656863 L-0.170940171,26.6167032 L1.43944445,23.5167501 L8.65673077,23.1210113 C9.02591882,22.6365726 9.85489318,21.5744463 10.3713034,21.0558922 L16.9464744,14.452287 L3.23782051,7.70312272 L6.70773503,4.21880269 L24.0890171,7.28009169 L30.242906,1.09951751 C30.9733547,0.367173482 32.1092308,-0.0206049535 33.5304914,-0.0206049535 C34.4976282,-0.0206049535 35.2699786,0.157932332 35.3028205,0.165892593 L35.6765385,0.253455466 L35.7875214,0.623039021 C36.3730128,2.56534273 36.0208119,4.75441454 34.9528846,5.82904979 L28.7695513,12.0380535 L31.8057265,29.4198523 L28.3358119,32.9053094 L21.6405983,19.1943283 L15.4991667,25.3623934 C14.8536538,26.0117233 13.4742949,27.2865023 12.9624145,27.7572949 L12.4256196,34.5542207 L9.37019231,36.2190525 L9.37019231,36.2190525 Z" id="Part-1"></path>
                        </g>
                    </g>
                    <circle id="Oval-2" stroke="#FFFFFF" cx="30" cy="30" r="30"></circle>
                </g>
            </g>
            <g id="icon-hotel-light" sketch:type="MSShapeGroup">
                <g id="Page-1">
                    <g id="Accomm" transform="translate(13.333333, 11.794872)" fill="#FFFFFF">
                        <g id="ICON">
                            <path d="M6.02220974,36.0683761 L6.44612892,36.0683761 L27.5683778,36.0683761 L33.6837642,36.0683761 L33.6837642,11.1594481 C33.6837642,9.9047519 32.6707664,8.88888887 31.4211702,8.88888887 L28.2478632,8.88888887 L28.2478632,2.09599136 C28.2478632,0.843999646 27.2306569,-0.170940171 25.9933303,-0.170940171 L7.85282354,-0.170940171 C6.60767938,-0.170940171 5.59829062,0.836129728 5.59829062,2.09599136 L5.59829062,15.6837607 L2.42498363,15.6837607 C1.17538751,15.6837607 0.162389706,16.6946369 0.162389706,17.9431567 L0.162389706,36.0683761 L6.02220974,36.0683761 L6.02220974,36.0683761 Z M23.7179487,34.7094022 L26.8888893,34.7094022 L26.8888889,2.09599136 C26.8888889,1.59630974 26.4818738,1.18803419 25.9933303,1.18803419 L7.85282354,1.18803419 C7.35645015,1.18803419 6.95726497,1.58845215 6.95726497,2.09599136 L6.95726503,34.7094022 L10.1282051,34.7094022 L10.1282051,30.3262302 L10.1282051,29.0470077 L10.9506761,29.0470077 L23.7179487,29.0470077 L23.7179487,34.7094022 L23.7179487,34.7094022 Z M22.5854701,30.1794863 L22.5854701,34.7094008 L11.2606837,34.7094008 L11.2606837,30.1794863 L22.5854701,30.1794863 L22.5854701,30.1794863 Z M32.3247897,34.7094022 L28.2478668,34.7094022 L28.2478668,10.2478633 L31.4211702,10.2478632 C31.9194608,10.2478632 32.3247898,10.6545325 32.3247898,11.1594481 L32.3247897,34.7094022 L32.3247897,34.7094022 Z M2.42498363,17.042735 L5.59828703,17.0427351 L5.59828703,34.7094008 L1.52136412,34.7094008 L1.52136407,17.9431567 C1.52136407,17.4459109 1.9251957,17.042735 2.42498363,17.042735 L2.42498363,17.042735 Z M10.1282051,25.8760684 L15.7905983,25.8760684 L15.7905983,20.2136752 L10.1282051,20.2136752 L10.1282051,25.8760684 L10.1282051,25.8760684 Z M14.6581196,21.3461538 L14.6581196,24.7435897 L11.2606837,24.7435897 L11.2606837,21.3461538 C11.2606837,21.2408595 14.6581196,21.3461538 14.6581196,21.3461538 L14.6581196,21.3461538 Z M18.0555555,25.8760684 L23.7179487,25.8760684 L23.7179487,20.2136752 L18.0555555,20.2136752 L18.0555555,25.8760684 L18.0555555,25.8760684 Z M22.5854701,21.3461538 L22.5854701,24.7435897 L19.1880342,24.7435897 L19.1880342,21.3461538 C19.1880342,21.2408595 22.5854701,21.3461538 22.5854701,21.3461538 L22.5854701,21.3461538 Z M10.1282051,17.9487179 L15.7905983,17.9487179 L15.7905983,12.2863248 L10.1282051,12.2863248 L10.1282051,17.9487179 L10.1282051,17.9487179 Z M14.6581196,13.4188034 L14.6581196,16.8162393 L11.2606837,16.8162393 L11.2606837,13.4188034 C11.2606837,13.3135091 14.6581196,13.4188034 14.6581196,13.4188034 L14.6581196,13.4188034 Z M18.0555555,17.9487179 L23.7179487,17.9487179 L23.7179487,12.2863248 L18.0555555,12.2863248 L18.0555555,17.9487179 L18.0555555,17.9487179 Z M22.5854701,13.4188034 L22.5854701,16.8162393 L19.1880342,16.8162393 L19.1880342,13.4188034 C19.1880342,13.3135091 22.5854701,13.4188034 22.5854701,13.4188034 L22.5854701,13.4188034 Z M10.1282051,10.0213675 L15.7905983,10.0213675 L15.7905983,4.35897436 L10.1282051,4.35897436 L10.1282051,10.0213675 L10.1282051,10.0213675 Z M14.6581196,5.49145297 L14.6581196,8.88888887 L11.2606837,8.88888887 L11.2606837,5.49145297 C11.2606837,5.38615862 14.6581196,5.49145297 14.6581196,5.49145297 L14.6581196,5.49145297 Z M18.0555555,10.0213675 L23.7179487,10.0213675 L23.7179487,4.35897436 L18.0555555,4.35897436 L18.0555555,10.0213675 L18.0555555,10.0213675 Z M22.5854701,5.49145297 L22.5854701,8.88888887 L19.1880342,8.88888887 L19.1880342,5.49145297 C19.1880342,5.38615862 22.5854701,5.49145297 22.5854701,5.49145297 L22.5854701,5.49145297 Z" id="Hotel"></path>
                        </g>
                    </g>
                    <circle id="Oval-2" stroke="#FFFFFF" cx="30" cy="30" r="30"></circle>
                </g>
            </g>
            <g id="icon-packages-light" transform="translate(0.000000, 270.000000)" sketch:type="MSShapeGroup">
                <g id="Page-1">
                    <circle id="Oval-2" stroke="#FFFFFF" cx="30" cy="30" r="30"></circle>
                    <g id="icon-tag" transform="translate(11.282051, 11.282051)" fill="#FFFFFF">
                        <path d="M21.2892308,0 L0,21.2346795 L16.6796474,37.9487179 L37.9487179,16.7365705 L37.9487179,7.38221154 L30.5487179,0 L21.2892308,0 L21.2892308,0 Z M2.05128205,20.7425514 L21.8214297,1.02564103 L29.8728772,1.02564103 L36.4102564,7.54842231 L36.4102564,15.6889288 L16.6625131,35.3846154 L2.05128205,20.7425514 L2.05128205,20.7425514 Z" id="Part-2"></path>
                        <path d="M30.7692308,8.20577979 C30.7692308,9.05287851 30.0798442,9.74358974 29.2307692,9.74358974 C28.3829925,9.74358974 27.6923077,9.05287851 27.6923077,8.20577979 C27.6923077,7.3573779 28.3829925,6.66666667 29.2307692,6.66666667 C30.0798442,6.66666667 30.7692308,7.3573779 30.7692308,8.20577979 M26.6666667,8.20567021 C26.6666667,9.62023533 27.8164836,10.7692308 29.2302284,10.7692308 C30.6439732,10.7692308 31.7948718,9.62023533 31.7948718,8.20567021 C31.7948718,6.79110503 30.6439732,5.64102564 29.2302284,5.64102564 C27.8164836,5.64102564 26.6666667,6.79110503 26.6666667,8.20567021" id="Part-1"></path>
                        <path d="M22.789405,22.7312279 C22.789405,24.1504694 22.4192954,25.2148845 21.679065,25.9245052 C20.8818938,26.6887122 20.1132046,27.0708099 19.3729742,27.0708099 L19.3729742,29.1996614 L18.1772234,29.1996614 L18.1772234,27.1526888 C17.2661706,27.0981026 16.4405414,26.7160049 15.700311,26.0063841 C14.9031398,25.2421772 14.5330302,23.8502497 14.589971,21.83056 L16.5544187,21.83056 C16.4405371,23.4681463 16.6398269,24.5325614 17.1522941,25.0238373 C17.5508797,25.4059407 17.8925194,25.5969896 18.1772234,25.5969896 L18.1772234,19.7017084 C17.4939338,19.1558463 16.9245344,18.6645778 16.469008,18.2278881 C15.4440736,17.2453364 14.9316141,16.2082139 14.9316141,15.1164897 C14.9316141,13.9701793 15.3017237,13.0422277 16.0419541,12.3326069 C16.7252437,11.6775724 17.436993,11.3227674 18.1772234,11.2681811 L18.1772234,9.71248196 L19.3729742,9.71248196 L19.3729742,11.2681811 C20.1132046,11.2681811 20.7964839,11.5684008 21.4228327,12.1688491 C22.2200039,12.9330561 22.6185835,14.0520566 22.6185835,15.5258843 L20.7395465,15.5258843 C20.7964873,14.4887463 20.5971975,13.7518435 20.1416711,13.3151538 C19.8000263,12.9876365 19.5437966,12.8238804 19.3729742,12.8238804 L19.3729742,17.9822514 C20.0562638,18.4735273 20.7680131,19.0739666 21.5082435,19.7835873 C22.3623555,20.6023805 22.789405,21.5849175 22.789405,22.7312279 L22.789405,22.7312279 Z M17.2665685,13.1942633 C16.8458933,13.5181516 16.6355589,14.0849476 16.6355589,14.8946682 C16.6355589,15.6504074 17.1463711,16.4871063 18.1680108,17.4047897 L18.1680108,12.789405 C17.927625,12.789405 17.6271472,12.9243565 17.2665685,13.1942633 L17.2665685,13.1942633 Z M19.1996615,25.0970973 C19.5415435,24.9934967 19.9119102,24.7603988 20.3107726,24.3977966 C20.5956743,24.1387951 20.738123,23.5949 20.738123,22.766095 C20.738123,21.6264882 20.2253076,20.6940966 19.1996615,19.9688922 L19.1996615,25.0970973 L19.1996615,25.0970973 Z" id="$" transform="translate(18.686841, 19.456072) rotate(45.000000) translate(-18.686841, -19.456072) "></path>
                    </g>
                </g>
            </g>
            <g id="icon-rentals-light" transform="translate(0.000000, 90.000000)" sketch:type="MSShapeGroup">
                <g id="Page-1">
                    <g id="Holiday-homes" transform="translate(9.230769, 8.717949)" fill="#FFFFFF">
                        <g id="ICON" transform="translate(0.021368, 0.021368)">
                            <g id="Icon" transform="translate(20.911738, 21.075737) rotate(-10.000000) translate(-20.911738, -21.075737) translate(2.706610, 2.870609)">
                                <path d="M19.797507,2.81705057 C19.5066702,3.16898845 19.0705297,3.39268823 18.5829923,3.39268823 C18.0758686,3.39268823 17.6243545,3.15065368 17.3341351,2.77401982 L5.03540684,7.74070995 L4.71929223,6.83403426 L17.0001509,1.87456052 C16.9984064,1.8435887 16.9975222,1.81238263 16.9975222,1.78096662 C16.9975222,0.890837303 17.7073613,0.169245002 18.5829923,0.169245002 C19.4586233,0.169245002 20.1684624,0.890837303 20.1684624,1.78096662 C20.1684624,1.83115559 20.1662057,1.88080876 20.1617898,1.929827 L32.3057953,6.83403426 L31.9896807,7.74070995 L19.797507,2.81705057 L19.797507,2.81705057 Z" id="Part-4"></path>
                                <path d="M1.54861878e-14,11.2182115 L1.54861878e-14,31.7732415 C1.54861878e-14,34.2751893 2.02603543,36.3034188 4.53473629,36.3034188 L31.7045799,36.3034188 C34.2090456,36.3034188 36.2393163,34.2678335 36.2393163,31.7732415 L36.2393163,11.2182115 C36.2393163,8.71626364 34.2132808,6.68803421 31.7045799,6.68803421 L4.53473629,6.68803421 C2.03027059,6.68803421 1.54861878e-14,8.72361949 1.54861878e-14,11.2182115 L1.54861878e-14,11.2182115 Z M31.7045799,7.93376067 C33.5239229,7.93376067 34.9935897,9.40289779 34.9935897,11.2182115 L34.9935897,31.7732415 C34.9935897,33.5824104 33.5184776,35.0576923 31.7045799,35.0576923 L4.53473629,35.0576923 C2.71539336,35.0576923 1.2457265,33.5885552 1.2457265,31.7732415 L1.2457265,11.2182115 C1.2457265,9.40904267 2.72083865,7.93376067 4.53473629,7.93376067 L31.7045799,7.93376067 L31.7045799,7.93376067 Z" id="Part-3"></path>
                                <g id="House" transform="translate(6.794872, 10.085470)">
                                    <path d="M11.1699162,-0.000180512821 L6.70924667,4.51309128 L6.70924667,2.70751179 L3.14151385,2.70751179 L3.14151385,8.12289641 L0.000178408942,11.3012759 L0.630407995,11.9393887 L11.1699162,1.27649641 L21.7089784,11.9393887 L22.339654,11.3012759 L11.1699162,-0.000180512821 L11.1699162,-0.000180512821 Z M4.03355855,3.6100759 L5.81720195,3.6100759 L5.81720195,5.41565538 L4.03355855,7.22033231 L4.03355855,3.6100759 L4.03355855,3.6100759 Z" id="Part-2"></path>
                                    <path d="M3.14151385,11.7331979 L3.14151385,22.5639672 L9.38582682,22.5639672 L9.38582682,16.2460185 L12.9540056,16.2460185 L12.9540056,22.5639672 L19.1983186,22.5639672 L19.1983186,11.7331979 L11.1699162,3.61012103 L3.14151385,11.7331979 L3.14151385,11.7331979 Z M4.03355855,12.1068595 L11.1699162,4.88679795 L18.3058278,12.1068595 L18.3058278,21.6618544 L13.8456043,21.6618544 L13.8456043,16.2460185 L13.8456043,15.3434544 L12.9540056,15.3434544 L9.38582682,15.3434544 L8.4937821,15.3434544 L8.4937821,16.2460185 L8.4937821,21.6618544 L4.03355855,21.6618544 L4.03355855,12.1068595 L4.03355855,12.1068595 Z" id="Part-1"></path>
                                </g>
                            </g>
                        </g>
                    </g>
                    <circle id="Oval-2" stroke="#FFFFFF" cx="30" cy="30" r="30"></circle>
                </g>
            </g>
        </g>
        <g id="Dark" sketch:type="MSLayerGroup" transform="translate(1.000000, 1.000000)">
            <g id="icon-rentals-dark" transform="translate(0.000000, 90.000000)" sketch:type="MSShapeGroup">
                <g id="Page-1">
                    <g id="Holiday-homes" transform="translate(9.230769, 8.717949)" fill="#4F4F4F">
                        <g id="ICON" transform="translate(0.021368, 0.021368)">
                            <g id="Icon" transform="translate(20.674106, 20.909345) rotate(-10.000000) translate(-20.674106, -20.909345) translate(2.674106, 2.909345)">
                                <path d="M19.797507,2.81705057 C19.5066702,3.16898845 19.0705297,3.39268823 18.5829923,3.39268823 C18.0758686,3.39268823 17.6243545,3.15065368 17.3341351,2.77401982 L5.03540684,7.74070995 L4.71929223,6.83403426 L17.0001509,1.87456052 C16.9984064,1.8435887 16.9975222,1.81238263 16.9975222,1.78096662 C16.9975222,0.890837303 17.7073613,0.169245002 18.5829923,0.169245002 C19.4586233,0.169245002 20.1684624,0.890837303 20.1684624,1.78096662 C20.1684624,1.83115559 20.1662057,1.88080876 20.1617898,1.929827 L32.3057953,6.83403426 L31.9896807,7.74070995 L19.797507,2.81705057 L19.797507,2.81705057 Z" id="Part-4"></path>
                                <path d="M2.90878432e-14,11.2182115 L2.90878432e-14,31.7732415 C2.90878432e-14,34.2751893 2.02603543,36.3034188 4.53473629,36.3034188 L31.7045799,36.3034188 C34.2090456,36.3034188 36.2393163,34.2678335 36.2393163,31.7732415 L36.2393163,11.2182115 C36.2393163,8.71626364 34.2132808,6.68803421 31.7045799,6.68803421 L4.53473629,6.68803421 C2.03027059,6.68803421 2.90878432e-14,8.72361949 2.90878432e-14,11.2182115 L2.90878432e-14,11.2182115 Z M31.7045799,7.93376067 C33.5239229,7.93376067 34.9935897,9.40289779 34.9935897,11.2182115 L34.9935897,31.7732415 C34.9935897,33.5824104 33.5184776,35.0576923 31.7045799,35.0576923 L4.53473629,35.0576923 C2.71539336,35.0576923 1.2457265,33.5885552 1.2457265,31.7732415 L1.2457265,11.2182115 C1.2457265,9.40904267 2.72083865,7.93376067 4.53473629,7.93376067 L31.7045799,7.93376067 L31.7045799,7.93376067 Z" id="Part-3"></path>
                                <g id="House" transform="translate(6.794872, 10.085470)">
                                    <path d="M11.1699162,-0.000180512821 L6.70924667,4.51309128 L6.70924667,2.70751179 L3.14151385,2.70751179 L3.14151385,8.12289641 L0.000178408942,11.3012759 L0.630407995,11.9393887 L11.1699162,1.27649641 L21.7089784,11.9393887 L22.339654,11.3012759 L11.1699162,-0.000180512821 L11.1699162,-0.000180512821 Z M4.03355855,3.6100759 L5.81720195,3.6100759 L5.81720195,5.41565538 L4.03355855,7.22033231 L4.03355855,3.6100759 L4.03355855,3.6100759 Z" id="Part-2"></path>
                                    <path d="M3.14151385,11.7331979 L3.14151385,22.5639672 L9.38582682,22.5639672 L9.38582682,16.2460185 L12.9540056,16.2460185 L12.9540056,22.5639672 L19.1983186,22.5639672 L19.1983186,11.7331979 L11.1699162,3.61012103 L3.14151385,11.7331979 L3.14151385,11.7331979 Z M4.03355855,12.1068595 L11.1699162,4.88679795 L18.3058278,12.1068595 L18.3058278,21.6618544 L13.8456043,21.6618544 L13.8456043,16.2460185 L13.8456043,15.3434544 L12.9540056,15.3434544 L9.38582682,15.3434544 L8.4937821,15.3434544 L8.4937821,16.2460185 L8.4937821,21.6618544 L4.03355855,21.6618544 L4.03355855,12.1068595 L4.03355855,12.1068595 Z" id="Part-1"></path>
                                </g>
                            </g>
                        </g>
                    </g>
                    <circle id="Oval-2" stroke="#4F4F4F" cx="30" cy="30" r="30"></circle>
                </g>
            </g>
            <g id="icon-hotel-dark" sketch:type="MSShapeGroup">
                <g id="Page-1">
                    <g id="Accomm" transform="translate(13.333333, 11.794872)" fill="#4F4F4F">
                        <g id="ICON">
                            <path d="M6.02220974,36.0683761 L6.44612892,36.0683761 L27.5683778,36.0683761 L33.6837642,36.0683761 L33.6837642,11.1594481 C33.6837642,9.9047519 32.6707664,8.88888887 31.4211702,8.88888887 L28.2478632,8.88888887 L28.2478632,2.09599136 C28.2478632,0.843999646 27.2306569,-0.170940171 25.9933303,-0.170940171 L7.85282354,-0.170940171 C6.60767938,-0.170940171 5.59829062,0.836129728 5.59829062,2.09599136 L5.59829062,15.6837607 L2.42498363,15.6837607 C1.17538751,15.6837607 0.162389706,16.6946369 0.162389706,17.9431567 L0.162389706,36.0683761 L6.02220974,36.0683761 L6.02220974,36.0683761 Z M23.7179487,34.7094022 L26.8888893,34.7094022 L26.8888889,2.09599136 C26.8888889,1.59630974 26.4818738,1.18803419 25.9933303,1.18803419 L7.85282354,1.18803419 C7.35645015,1.18803419 6.95726497,1.58845215 6.95726497,2.09599136 L6.95726503,34.7094022 L10.1282051,34.7094022 L10.1282051,30.3262302 L10.1282051,29.0470077 L10.9506761,29.0470077 L23.7179487,29.0470077 L23.7179487,34.7094022 L23.7179487,34.7094022 Z M22.5854701,30.1794863 L22.5854701,34.7094008 L11.2606837,34.7094008 L11.2606837,30.1794863 L22.5854701,30.1794863 L22.5854701,30.1794863 Z M32.3247897,34.7094022 L28.2478668,34.7094022 L28.2478668,10.2478633 L31.4211702,10.2478632 C31.9194608,10.2478632 32.3247898,10.6545325 32.3247898,11.1594481 L32.3247897,34.7094022 L32.3247897,34.7094022 Z M2.42498363,17.042735 L5.59828703,17.0427351 L5.59828703,34.7094008 L1.52136412,34.7094008 L1.52136407,17.9431567 C1.52136407,17.4459109 1.9251957,17.042735 2.42498363,17.042735 L2.42498363,17.042735 Z M10.1282051,25.8760684 L15.7905983,25.8760684 L15.7905983,20.2136752 L10.1282051,20.2136752 L10.1282051,25.8760684 L10.1282051,25.8760684 Z M14.6581196,21.3461538 L14.6581196,24.7435897 L11.2606837,24.7435897 L11.2606837,21.3461538 C11.2606837,21.2408595 14.6581196,21.3461538 14.6581196,21.3461538 L14.6581196,21.3461538 Z M18.0555555,25.8760684 L23.7179487,25.8760684 L23.7179487,20.2136752 L18.0555555,20.2136752 L18.0555555,25.8760684 L18.0555555,25.8760684 Z M22.5854701,21.3461538 L22.5854701,24.7435897 L19.1880342,24.7435897 L19.1880342,21.3461538 C19.1880342,21.2408595 22.5854701,21.3461538 22.5854701,21.3461538 L22.5854701,21.3461538 Z M10.1282051,17.9487179 L15.7905983,17.9487179 L15.7905983,12.2863248 L10.1282051,12.2863248 L10.1282051,17.9487179 L10.1282051,17.9487179 Z M14.6581196,13.4188034 L14.6581196,16.8162393 L11.2606837,16.8162393 L11.2606837,13.4188034 C11.2606837,13.3135091 14.6581196,13.4188034 14.6581196,13.4188034 L14.6581196,13.4188034 Z M18.0555555,17.9487179 L23.7179487,17.9487179 L23.7179487,12.2863248 L18.0555555,12.2863248 L18.0555555,17.9487179 L18.0555555,17.9487179 Z M22.5854701,13.4188034 L22.5854701,16.8162393 L19.1880342,16.8162393 L19.1880342,13.4188034 C19.1880342,13.3135091 22.5854701,13.4188034 22.5854701,13.4188034 L22.5854701,13.4188034 Z M10.1282051,10.0213675 L15.7905983,10.0213675 L15.7905983,4.35897436 L10.1282051,4.35897436 L10.1282051,10.0213675 L10.1282051,10.0213675 Z M14.6581196,5.49145297 L14.6581196,8.88888887 L11.2606837,8.88888887 L11.2606837,5.49145297 C11.2606837,5.38615862 14.6581196,5.49145297 14.6581196,5.49145297 L14.6581196,5.49145297 Z M18.0555555,10.0213675 L23.7179487,10.0213675 L23.7179487,4.35897436 L18.0555555,4.35897436 L18.0555555,10.0213675 L18.0555555,10.0213675 Z M22.5854701,5.49145297 L22.5854701,8.88888887 L19.1880342,8.88888887 L19.1880342,5.49145297 C19.1880342,5.38615862 22.5854701,5.49145297 22.5854701,5.49145297 L22.5854701,5.49145297 Z" id="Hotel"></path>
                        </g>
                    </g>
                    <circle id="Oval-2" stroke="#4F4F4F" cx="30" cy="30" r="30"></circle>
                </g>
            </g>
            <g id="icon-flights-dark" transform="translate(0.000000, 180.000000)" sketch:type="MSShapeGroup">
                <g id="Page-1">
                    <g id="Flights" transform="translate(11.794872, 11.794872)" fill="#4F4F4F">
                        <g id="ICON">
                            <path d="M1.81202991,25.6887642 L8.8345299,27.246701 L10.3010897,34.1914602 L11.1561111,33.7263535 L11.6781837,27.127297 L11.8718376,26.9498969 C11.8899573,26.9317021 13.7947863,25.1849933 14.5580769,24.4185339 L22.0165812,16.9279282 L28.7117949,30.6389094 L30.3765385,28.9672546 L27.3392308,11.5831814 L34.0129273,4.88405308 C34.5904914,4.30181684 34.9426923,2.882616 34.615406,1.39859589 C34.3470086,1.3576574 33.9597009,1.31558174 33.5304914,1.31558174 C32.7898504,1.31558174 31.7842094,1.44180873 31.1851282,2.04451422 L24.5408761,8.71635021 L7.159594,5.65392405 L5.49371795,7.32671605 L19.2023718,14.0758803 L11.3123932,22.0008889 C10.7087821,22.6047315 9.54232908,24.1569825 9.52987179,24.172903 L9.34414528,24.4208083 L2.26841881,24.8097239 L1.81202991,25.6887642 L1.81202991,25.6887642 Z M9.37019231,36.2190525 L7.71111113,28.3656863 L-0.170940171,26.6167032 L1.43944445,23.5167501 L8.65673077,23.1210113 C9.02591882,22.6365726 9.85489318,21.5744463 10.3713034,21.0558922 L16.9464744,14.452287 L3.23782051,7.70312272 L6.70773503,4.21880269 L24.0890171,7.28009169 L30.242906,1.09951751 C30.9733547,0.367173482 32.1092308,-0.0206049535 33.5304914,-0.0206049535 C34.4976282,-0.0206049535 35.2699786,0.157932332 35.3028205,0.165892593 L35.6765385,0.253455466 L35.7875214,0.623039021 C36.3730128,2.56534273 36.0208119,4.75441454 34.9528846,5.82904979 L28.7695513,12.0380535 L31.8057265,29.4198523 L28.3358119,32.9053094 L21.6405983,19.1943283 L15.4991667,25.3623934 C14.8536538,26.0117233 13.4742949,27.2865023 12.9624145,27.7572949 L12.4256196,34.5542207 L9.37019231,36.2190525 L9.37019231,36.2190525 Z" id="Part-1"></path>
                        </g>
                    </g>
                    <circle id="Oval-2" stroke="#4F4F4F" cx="30" cy="30" r="30"></circle>
                </g>
            </g>
            <g id="icon-packages-dark" transform="translate(0.000000, 270.000000)">
                <g id="Oval-2">
                    <use stroke="#4F4F4F" stroke-width="1" sketch:type="MSShapeGroup" xlink:href="#path-1"></use>
                    <use stroke="none" xlink:href="#path-1"></use>
                    <use stroke="none" xlink:href="#path-1"></use>
                </g>
                <path d="M32.5712821,11.2820513 L11.2820513,32.5167308 L27.9616987,49.2307692 L49.2307692,28.0186218 L49.2307692,18.6642628 L41.8307692,11.2820513 L32.5712821,11.2820513 L32.5712821,11.2820513 Z M13.3333333,32.0246027 L33.103481,12.3076923 L41.1549285,12.3076923 L47.6923077,18.8304736 L47.6923077,26.9709801 L27.9445644,46.6666667 L13.3333333,32.0246027 L13.3333333,32.0246027 Z" id="Part-2" fill="#4F4F4F" sketch:type="MSShapeGroup"></path>
                <path d="M42.0512821,19.4878311 C42.0512821,20.3349298 41.3618955,21.025641 40.5128205,21.025641 C39.6650438,21.025641 38.974359,20.3349298 38.974359,19.4878311 C38.974359,18.6394292 39.6650438,17.9487179 40.5128205,17.9487179 C41.3618955,17.9487179 42.0512821,18.6394292 42.0512821,19.4878311 M37.9487179,19.4877215 C37.9487179,20.9022866 39.0985349,22.0512821 40.5122797,22.0512821 C41.9260245,22.0512821 43.0769231,20.9022866 43.0769231,19.4877215 C43.0769231,18.0731563 41.9260245,16.9230769 40.5122797,16.9230769 C39.0985349,16.9230769 37.9487179,18.0731563 37.9487179,19.4877215" id="Part-1" fill="#4F4F4F" sketch:type="MSShapeGroup"></path>
                <path d="M34.0714563,34.0132792 C34.0714563,35.4325207 33.7013467,36.4969358 32.9611163,37.2065565 C32.1639451,37.9707634 31.3952559,38.3528612 30.6550255,38.3528612 L30.6550255,40.4817127 L29.4592747,40.4817127 L29.4592747,38.4347401 C28.5482219,38.3801539 27.7225927,37.9980562 26.9823623,37.2884354 C26.1851911,36.5242285 25.8150815,35.132301 25.8720223,33.1126112 L27.83647,33.1126112 C27.7225884,34.7501976 27.9218782,35.8146127 28.4343454,36.3058886 C28.832931,36.687992 29.1745707,36.8790409 29.4592747,36.8790409 L29.4592747,30.9837597 C28.7759851,30.4378976 28.2065857,29.9466291 27.7510592,29.5099394 C26.7261248,28.5273877 26.2136653,27.4902652 26.2136653,26.398541 C26.2136653,25.2522306 26.583775,24.3242789 27.3240054,23.6146582 C28.007295,22.9596237 28.7190443,22.6048187 29.4592747,22.5502324 L29.4592747,20.9945332 L30.6550255,20.9945332 L30.6550255,22.5502324 C31.3952559,22.5502324 32.0785352,22.8504521 32.704884,23.4509004 C33.5020551,24.2151073 33.9006348,25.3341079 33.9006348,26.8079356 L32.0215978,26.8079356 C32.0785386,25.7707976 31.8792488,25.0338948 31.4237224,24.5972051 C31.0820776,24.2696878 30.8258479,24.1059317 30.6550255,24.1059317 L30.6550255,29.2643027 C31.338315,29.7555786 32.0500644,30.3560179 32.7902947,31.0656386 C33.6444067,31.8844318 34.0714563,32.8669688 34.0714563,34.0132792 L34.0714563,34.0132792 Z M28.5486198,24.4763146 C28.1279446,24.8002029 27.9176102,25.3669988 27.9176102,26.1767195 C27.9176102,26.9324587 28.4284224,27.7691576 29.4500621,28.6868409 L29.4500621,24.0714563 C29.2096763,24.0714563 28.9091985,24.2064078 28.5486198,24.4763146 L28.5486198,24.4763146 Z M30.4817127,36.3791486 C30.8235948,36.275548 31.1939615,36.0424501 31.5928239,35.6798479 C31.8777256,35.4208464 32.0201743,34.8769513 32.0201743,34.0481463 C32.0201743,32.9085394 31.5073589,31.9761479 30.4817127,31.2509435 L30.4817127,36.3791486 L30.4817127,36.3791486 Z" id="$" fill="#4F4F4F" sketch:type="MSShapeGroup" transform="translate(29.968892, 30.738123) rotate(45.000000) translate(-29.968892, -30.738123) "></path>
            </g>
        </g>
    </g>
</svg>